<mxfile host="app.diagrams.net" agent="Mozilla/5.0 (Windows NT 10.0; Win64; x64) AppleWebKit/537.36 (KHTML, like Gecko) Chrome/139.0.0.0 Safari/537.36" version="28.1.1">
  <diagram name="Page-1" id="FJW9onxGqNzLdRWWdVVD">
    <mxGraphModel dx="1722" dy="948" grid="1" gridSize="10" guides="1" tooltips="1" connect="1" arrows="1" fold="1" page="1" pageScale="1" pageWidth="827" pageHeight="1169" math="0" shadow="0">
      <root>
        <mxCell id="0" />
        <mxCell id="1" parent="0" />
        <mxCell id="4IrTPSqauzqi1Ja1R15Z-7" style="edgeStyle=orthogonalEdgeStyle;rounded=0;orthogonalLoop=1;jettySize=auto;html=1;" edge="1" parent="1" source="4IrTPSqauzqi1Ja1R15Z-1">
          <mxGeometry relative="1" as="geometry">
            <mxPoint x="290.0000000000002" y="300" as="targetPoint" />
          </mxGeometry>
        </mxCell>
        <mxCell id="4IrTPSqauzqi1Ja1R15Z-8" value="POSICION CADA 10 S" style="edgeLabel;html=1;align=center;verticalAlign=middle;resizable=0;points=[];" vertex="1" connectable="0" parent="4IrTPSqauzqi1Ja1R15Z-7">
          <mxGeometry x="0.2283" y="1" relative="1" as="geometry">
            <mxPoint as="offset" />
          </mxGeometry>
        </mxCell>
        <mxCell id="4IrTPSqauzqi1Ja1R15Z-1" value="BUSES&lt;div&gt;&lt;br&gt;&lt;/div&gt;" style="shape=umlActor;verticalLabelPosition=bottom;verticalAlign=top;html=1;outlineConnect=0;" vertex="1" parent="1">
          <mxGeometry x="140" y="110" width="30" height="60" as="geometry" />
        </mxCell>
        <mxCell id="4IrTPSqauzqi1Ja1R15Z-9" value="&lt;br&gt;&lt;br&gt;ALMANCENAMIENTO&lt;br&gt;HOT&amp;nbsp;&lt;div&gt;&lt;br/&gt;&lt;/div&gt;" style="strokeWidth=2;html=1;shape=mxgraph.flowchart.database;whiteSpace=wrap;" vertex="1" parent="1">
          <mxGeometry x="500" y="270" width="150" height="120" as="geometry" />
        </mxCell>
        <mxCell id="4IrTPSqauzqi1Ja1R15Z-13" value="" style="edgeStyle=orthogonalEdgeStyle;rounded=0;orthogonalLoop=1;jettySize=auto;html=1;" edge="1" parent="1" source="4IrTPSqauzqi1Ja1R15Z-10" target="4IrTPSqauzqi1Ja1R15Z-12">
          <mxGeometry relative="1" as="geometry" />
        </mxCell>
        <mxCell id="4IrTPSqauzqi1Ja1R15Z-23" value="" style="edgeStyle=orthogonalEdgeStyle;rounded=0;orthogonalLoop=1;jettySize=auto;html=1;" edge="1" parent="1" source="4IrTPSqauzqi1Ja1R15Z-10" target="4IrTPSqauzqi1Ja1R15Z-22">
          <mxGeometry relative="1" as="geometry" />
        </mxCell>
        <mxCell id="4IrTPSqauzqi1Ja1R15Z-10" value="INGESTA DE DATOS -STREAMING" style="rounded=0;whiteSpace=wrap;html=1;" vertex="1" parent="1">
          <mxGeometry x="230" y="300" width="120" height="60" as="geometry" />
        </mxCell>
        <mxCell id="4IrTPSqauzqi1Ja1R15Z-11" style="edgeStyle=orthogonalEdgeStyle;rounded=0;orthogonalLoop=1;jettySize=auto;html=1;entryX=0;entryY=0.5;entryDx=0;entryDy=0;entryPerimeter=0;" edge="1" parent="1" source="4IrTPSqauzqi1Ja1R15Z-10" target="4IrTPSqauzqi1Ja1R15Z-9">
          <mxGeometry relative="1" as="geometry" />
        </mxCell>
        <mxCell id="4IrTPSqauzqi1Ja1R15Z-20" value="" style="edgeStyle=orthogonalEdgeStyle;rounded=0;orthogonalLoop=1;jettySize=auto;html=1;" edge="1" parent="1" source="4IrTPSqauzqi1Ja1R15Z-12" target="4IrTPSqauzqi1Ja1R15Z-19">
          <mxGeometry relative="1" as="geometry" />
        </mxCell>
        <mxCell id="4IrTPSqauzqi1Ja1R15Z-25" value="" style="edgeStyle=orthogonalEdgeStyle;rounded=0;orthogonalLoop=1;jettySize=auto;html=1;" edge="1" parent="1" source="4IrTPSqauzqi1Ja1R15Z-12" target="4IrTPSqauzqi1Ja1R15Z-24">
          <mxGeometry relative="1" as="geometry" />
        </mxCell>
        <mxCell id="4IrTPSqauzqi1Ja1R15Z-12" value="GENERACION DE REPORTES DIARIOS - MICRO BATCH" style="whiteSpace=wrap;html=1;rounded=0;" vertex="1" parent="1">
          <mxGeometry x="230" y="440" width="120" height="60" as="geometry" />
        </mxCell>
        <mxCell id="4IrTPSqauzqi1Ja1R15Z-14" value="&lt;br&gt;&lt;br&gt;ALMANCENAMIENTO&lt;br&gt;WARM&lt;br&gt;FORMATO JSON" style="strokeWidth=2;html=1;shape=mxgraph.flowchart.database;whiteSpace=wrap;" vertex="1" parent="1">
          <mxGeometry x="500" y="410" width="150" height="120" as="geometry" />
        </mxCell>
        <mxCell id="4IrTPSqauzqi1Ja1R15Z-15" value="&lt;br&gt;&lt;br&gt;ALMANCENAMIENTO&lt;br&gt;COLD&amp;nbsp;&lt;br&gt;FORMATO JSON" style="strokeWidth=2;html=1;shape=mxgraph.flowchart.database;whiteSpace=wrap;" vertex="1" parent="1">
          <mxGeometry x="500" y="560" width="150" height="120" as="geometry" />
        </mxCell>
        <mxCell id="4IrTPSqauzqi1Ja1R15Z-16" style="edgeStyle=orthogonalEdgeStyle;rounded=0;orthogonalLoop=1;jettySize=auto;html=1;entryX=0;entryY=0.5;entryDx=0;entryDy=0;entryPerimeter=0;" edge="1" parent="1" source="4IrTPSqauzqi1Ja1R15Z-12" target="4IrTPSqauzqi1Ja1R15Z-14">
          <mxGeometry relative="1" as="geometry" />
        </mxCell>
        <mxCell id="4IrTPSqauzqi1Ja1R15Z-27" value="" style="edgeStyle=orthogonalEdgeStyle;rounded=0;orthogonalLoop=1;jettySize=auto;html=1;" edge="1" parent="1" source="4IrTPSqauzqi1Ja1R15Z-19" target="4IrTPSqauzqi1Ja1R15Z-26">
          <mxGeometry relative="1" as="geometry" />
        </mxCell>
        <mxCell id="4IrTPSqauzqi1Ja1R15Z-19" value="GUARDO DE DATOS A FUTURO - BATCH" style="whiteSpace=wrap;html=1;rounded=0;" vertex="1" parent="1">
          <mxGeometry x="230" y="590" width="120" height="60" as="geometry" />
        </mxCell>
        <mxCell id="4IrTPSqauzqi1Ja1R15Z-21" style="edgeStyle=orthogonalEdgeStyle;rounded=0;orthogonalLoop=1;jettySize=auto;html=1;entryX=0;entryY=0.5;entryDx=0;entryDy=0;entryPerimeter=0;" edge="1" parent="1" source="4IrTPSqauzqi1Ja1R15Z-19" target="4IrTPSqauzqi1Ja1R15Z-15">
          <mxGeometry relative="1" as="geometry">
            <mxPoint x="632" y="620" as="targetPoint" />
          </mxGeometry>
        </mxCell>
        <mxCell id="4IrTPSqauzqi1Ja1R15Z-22" value="FORMATO JSON" style="ellipse;whiteSpace=wrap;html=1;rounded=0;" vertex="1" parent="1">
          <mxGeometry x="50" y="290" width="80" height="80" as="geometry" />
        </mxCell>
        <mxCell id="4IrTPSqauzqi1Ja1R15Z-24" value="CSV&amp;nbsp;" style="ellipse;whiteSpace=wrap;html=1;rounded=0;" vertex="1" parent="1">
          <mxGeometry x="50" y="430" width="80" height="80" as="geometry" />
        </mxCell>
        <mxCell id="4IrTPSqauzqi1Ja1R15Z-26" value="PARQUET" style="ellipse;whiteSpace=wrap;html=1;rounded=0;" vertex="1" parent="1">
          <mxGeometry x="50" y="580" width="80" height="80" as="geometry" />
        </mxCell>
      </root>
    </mxGraphModel>
  </diagram>
</mxfile>
